<?xml version="1.0" standalone="no"?>
<!DOCTYPE svg PUBLIC "-//W3C//DTD SVG 20010904//EN"
 "http://www.w3.org/TR/2001/REC-SVG-20010904/DTD/svg10.dtd">
<svg version="1.0" xmlns="http://www.w3.org/2000/svg"
 width="512.000000pt" height="512.000000pt" viewBox="0 0 512.000000 512.000000"
 preserveAspectRatio="xMidYMid meet">
<metadata>
Created by potrace 1.14, written by Peter Selinger 2001-2017
</metadata>
<g transform="translate(0.000000,512.000000) scale(0.100000,-0.100000)"
fill="#000000" stroke="none">
<path d="M2280 5007 c-3 -3 -39 -8 -80 -11 -359 -30 -776 -178 -1090 -386
-154 -102 -257 -187 -390 -320 -386 -387 -615 -845 -701 -1402 -17 -111 -19
-463 -3 -607 33 -294 101 -523 241 -811 118 -240 260 -438 463 -641 105 -105
288 -259 308 -259 6 0 12 -4 14 -8 8 -19 200 -137 330 -203 176 -89 403 -164
618 -205 83 -15 93 -17 205 -31 79 -10 431 -10 520 0 333 39 678 152 965 317
55 32 270 177 280 189 3 3 34 30 70 60 275 228 524 564 669 902 134 314 194
602 195 944 1 226 -5 302 -34 459 -27 142 -27 144 -55 241 -89 308 -252 620
-455 871 -94 117 -291 308 -410 398 -58 44 -109 83 -115 88 -9 8 174 3 258 -7
181 -23 370 -71 434 -111 12 -8 27 -14 33 -14 22 0 148 -91 200 -144 73 -74
113 -140 146 -244 25 -76 29 -102 29 -207 -1 -66 -5 -150 -9 -187 -9 -66 -8
-67 22 -97 34 -34 67 -39 111 -16 48 24 62 82 66 270 4 189 -29 324 -116 472
-39 66 -172 205 -240 251 -167 113 -426 195 -689 219 -100 9 -432 9 -508 1
-47 -6 -64 -2 -130 26 -189 82 -376 138 -562 170 -14 2 -41 7 -60 10 -19 3
-53 9 -75 11 -53 7 -449 17 -455 12z"/>
</g>
</svg>
